<svg width="404" height="94" viewBox="0 0 404 94" fill="none" xmlns="http://www.w3.org/2000/svg">
<rect x="0.5" y="0.5" width="403" height="93" rx="2.5" fill="white" stroke="#DADADA"/>
<path d="M92.9975 40.016C93.4935 40.272 93.7415 40.68 93.7415 41.24C93.7415 41.576 93.6215 41.904 93.3815 42.224C93.1255 42.56 92.7975 42.728 92.3975 42.728C92.1255 42.728 91.8535 42.656 91.5815 42.512C90.7975 42.144 89.9495 41.96 89.0375 41.96C87.9175 41.96 86.9415 42.2 86.1095 42.68C85.2775 43.144 84.6375 43.808 84.1895 44.672C83.7415 45.52 83.5175 46.496 83.5175 47.6C83.5175 49.488 84.0215 50.92 85.0295 51.896C86.0535 52.872 87.3895 53.36 89.0375 53.36C90.0135 53.36 90.8615 53.176 91.5815 52.808C91.8695 52.68 92.1255 52.616 92.3495 52.616C92.7655 52.616 93.1175 52.792 93.4055 53.144C93.6455 53.448 93.7655 53.776 93.7655 54.128C93.7655 54.384 93.7015 54.616 93.5735 54.824C93.4455 55.032 93.2615 55.192 93.0215 55.304C91.7735 55.928 90.4455 56.24 89.0375 56.24C87.4695 56.24 86.0295 55.912 84.7175 55.256C83.4055 54.584 82.3575 53.6 81.5735 52.304C80.7895 51.008 80.3975 49.44 80.3975 47.6C80.3975 45.968 80.7655 44.504 81.5015 43.208C82.2535 41.912 83.2855 40.904 84.5975 40.184C85.9095 39.448 87.3895 39.08 89.0375 39.08C90.4615 39.08 91.7815 39.392 92.9975 40.016ZM112.49 47.6C112.49 49.184 112.138 50.64 111.434 51.968C110.73 53.28 109.754 54.32 108.506 55.088C107.274 55.856 105.882 56.24 104.33 56.24C102.778 56.24 101.378 55.856 100.13 55.088C98.8984 54.32 97.9304 53.28 97.2264 51.968C96.5384 50.64 96.1944 49.184 96.1944 47.6C96.1944 46.016 96.5384 44.568 97.2264 43.256C97.9304 41.928 98.8984 40.88 100.13 40.112C101.378 39.344 102.778 38.96 104.33 38.96C105.882 38.96 107.274 39.344 108.506 40.112C109.754 40.88 110.73 41.928 111.434 43.256C112.138 44.568 112.49 46.016 112.49 47.6ZM109.37 47.6C109.37 46.528 109.154 45.56 108.722 44.696C108.29 43.816 107.69 43.12 106.922 42.608C106.154 42.096 105.29 41.84 104.33 41.84C103.354 41.84 102.482 42.096 101.714 42.608C100.962 43.104 100.37 43.792 99.9384 44.672C99.5224 45.552 99.3144 46.528 99.3144 47.6C99.3144 48.672 99.5224 49.648 99.9384 50.528C100.37 51.408 100.962 52.104 101.714 52.616C102.482 53.112 103.354 53.36 104.33 53.36C105.29 53.36 106.154 53.104 106.922 52.592C107.69 52.08 108.29 51.392 108.722 50.528C109.154 49.648 109.37 48.672 109.37 47.6ZM128.739 39.2C129.123 39.2 129.435 39.328 129.675 39.584C129.915 39.84 130.035 40.16 130.035 40.544V54.536C130.035 54.952 129.891 55.304 129.603 55.592C129.331 55.864 128.987 56 128.571 56C128.347 56 128.123 55.968 127.899 55.904C127.691 55.824 127.539 55.72 127.443 55.592L118.635 44.408V54.656C118.635 55.04 118.507 55.36 118.251 55.616C118.011 55.872 117.691 56 117.291 56C116.907 56 116.595 55.872 116.355 55.616C116.115 55.36 115.995 55.04 115.995 54.656V40.664C115.995 40.248 116.131 39.904 116.403 39.632C116.691 39.344 117.043 39.2 117.459 39.2C117.699 39.2 117.931 39.248 118.155 39.344C118.395 39.44 118.571 39.568 118.683 39.728L127.419 50.864V40.544C127.419 40.16 127.539 39.84 127.779 39.584C128.035 39.328 128.355 39.2 128.739 39.2ZM145.434 39.2C145.866 39.2 146.218 39.328 146.49 39.584C146.762 39.84 146.898 40.176 146.898 40.592C146.898 41.008 146.762 41.344 146.49 41.6C146.218 41.84 145.866 41.96 145.434 41.96H141.666V54.536C141.666 54.952 141.514 55.304 141.21 55.592C140.906 55.864 140.53 56 140.082 56C139.634 56 139.266 55.864 138.978 55.592C138.69 55.304 138.546 54.952 138.546 54.536V41.96H134.778C134.346 41.96 133.994 41.832 133.722 41.576C133.45 41.32 133.314 40.984 133.314 40.568C133.314 40.168 133.45 39.84 133.722 39.584C134.01 39.328 134.362 39.2 134.778 39.2H145.434ZM153.167 54.536C153.167 54.952 153.015 55.304 152.711 55.592C152.407 55.864 152.055 56 151.655 56C151.223 56 150.863 55.864 150.575 55.592C150.303 55.304 150.167 54.952 150.167 54.536V40.664C150.167 40.248 150.311 39.904 150.599 39.632C150.887 39.344 151.255 39.2 151.703 39.2C152.103 39.2 152.447 39.344 152.735 39.632C153.023 39.904 153.167 40.248 153.167 40.664V54.536ZM170.271 39.2C170.655 39.2 170.967 39.328 171.207 39.584C171.447 39.84 171.567 40.16 171.567 40.544V54.536C171.567 54.952 171.423 55.304 171.135 55.592C170.863 55.864 170.519 56 170.103 56C169.879 56 169.655 55.968 169.431 55.904C169.223 55.824 169.071 55.72 168.975 55.592L160.167 44.408V54.656C160.167 55.04 160.039 55.36 159.783 55.616C159.543 55.872 159.223 56 158.823 56C158.439 56 158.127 55.872 157.887 55.616C157.647 55.36 157.527 55.04 157.527 54.656V40.664C157.527 40.248 157.663 39.904 157.935 39.632C158.223 39.344 158.575 39.2 158.991 39.2C159.231 39.2 159.463 39.248 159.687 39.344C159.927 39.44 160.103 39.568 160.215 39.728L168.951 50.864V40.544C168.951 40.16 169.071 39.84 169.311 39.584C169.567 39.328 169.887 39.2 170.271 39.2ZM187.853 39.176C188.269 39.176 188.605 39.312 188.861 39.584C189.117 39.856 189.245 40.208 189.245 40.64V49.328C189.245 50.656 188.965 51.832 188.405 52.856C187.845 53.88 187.061 54.68 186.053 55.256C185.045 55.832 183.893 56.12 182.597 56.12C181.301 56.12 180.141 55.832 179.117 55.256C178.109 54.68 177.325 53.88 176.765 52.856C176.205 51.832 175.925 50.656 175.925 49.328V40.64C175.925 40.224 176.069 39.88 176.357 39.608C176.645 39.32 177.013 39.176 177.461 39.176C177.845 39.176 178.181 39.32 178.469 39.608C178.757 39.88 178.901 40.224 178.901 40.64V49.328C178.901 50.096 179.069 50.784 179.405 51.392C179.741 51.984 180.189 52.44 180.749 52.76C181.325 53.08 181.941 53.24 182.597 53.24C183.285 53.24 183.925 53.08 184.517 52.76C185.125 52.44 185.605 51.984 185.957 51.392C186.325 50.784 186.509 50.096 186.509 49.328V40.64C186.509 40.208 186.629 39.856 186.869 39.584C187.109 39.312 187.437 39.176 187.853 39.176ZM203.101 53.24C203.517 53.24 203.861 53.384 204.133 53.672C204.421 53.944 204.565 54.264 204.565 54.632C204.565 55.032 204.421 55.36 204.133 55.616C203.861 55.872 203.517 56 203.101 56H195.061C194.645 56 194.293 55.864 194.005 55.592C193.733 55.304 193.597 54.952 193.597 54.536V40.664C193.597 40.248 193.733 39.904 194.005 39.632C194.293 39.344 194.645 39.2 195.061 39.2H203.101C203.517 39.2 203.861 39.336 204.133 39.608C204.421 39.864 204.565 40.2 204.565 40.616C204.565 41.016 204.429 41.344 204.157 41.6C203.885 41.84 203.533 41.96 203.101 41.96H196.597V46.04H202.021C202.437 46.04 202.781 46.176 203.053 46.448C203.341 46.704 203.485 47.04 203.485 47.456C203.485 47.856 203.349 48.184 203.077 48.44C202.805 48.68 202.453 48.8 202.021 48.8H196.597V53.24H203.101ZM234.446 39.128C234.83 39.128 235.182 39.28 235.502 39.584C235.838 39.872 236.006 40.24 236.006 40.688C236.006 40.832 235.982 40.992 235.934 41.168L231.206 55.088C231.11 55.36 230.942 55.576 230.702 55.736C230.462 55.896 230.198 55.984 229.91 56C229.622 56 229.35 55.92 229.094 55.76C228.838 55.6 228.638 55.368 228.494 55.064L225.086 47.312L221.654 55.064C221.51 55.368 221.31 55.6 221.054 55.76C220.798 55.92 220.526 56 220.238 56C219.95 55.984 219.686 55.896 219.446 55.736C219.206 55.576 219.038 55.36 218.942 55.088L214.214 41.168C214.166 40.992 214.142 40.832 214.142 40.688C214.142 40.24 214.302 39.872 214.622 39.584C214.958 39.28 215.326 39.128 215.726 39.128C216.046 39.128 216.334 39.216 216.59 39.392C216.846 39.552 217.022 39.776 217.118 40.064L220.694 50.912L223.814 43.424C223.942 43.136 224.126 42.912 224.366 42.752C224.606 42.576 224.878 42.496 225.182 42.512C225.486 42.496 225.75 42.576 225.974 42.752C226.214 42.912 226.398 43.136 226.526 43.424L229.478 50.84L233.03 40.064C233.126 39.776 233.302 39.552 233.558 39.392C233.83 39.216 234.126 39.128 234.446 39.128ZM241.948 54.536C241.948 54.952 241.796 55.304 241.492 55.592C241.188 55.864 240.836 56 240.436 56C240.004 56 239.644 55.864 239.356 55.592C239.084 55.304 238.948 54.952 238.948 54.536V40.664C238.948 40.248 239.092 39.904 239.38 39.632C239.668 39.344 240.036 39.2 240.484 39.2C240.884 39.2 241.228 39.344 241.516 39.632C241.804 39.904 241.948 40.248 241.948 40.664V54.536ZM257.348 39.2C257.78 39.2 258.132 39.328 258.404 39.584C258.676 39.84 258.812 40.176 258.812 40.592C258.812 41.008 258.676 41.344 258.404 41.6C258.132 41.84 257.78 41.96 257.348 41.96H253.58V54.536C253.58 54.952 253.428 55.304 253.124 55.592C252.82 55.864 252.444 56 251.996 56C251.548 56 251.18 55.864 250.892 55.592C250.604 55.304 250.46 54.952 250.46 54.536V41.96H246.692C246.26 41.96 245.908 41.832 245.636 41.576C245.364 41.32 245.228 40.984 245.228 40.568C245.228 40.168 245.364 39.84 245.636 39.584C245.924 39.328 246.276 39.2 246.692 39.2H257.348ZM274.249 39.2C274.697 39.2 275.057 39.336 275.329 39.608C275.601 39.88 275.737 40.232 275.737 40.664V54.536C275.737 54.952 275.593 55.304 275.305 55.592C275.017 55.864 274.649 56 274.201 56C273.801 56 273.457 55.864 273.169 55.592C272.881 55.304 272.737 54.952 272.737 54.536V48.944H265.081V54.536C265.081 54.952 264.929 55.304 264.625 55.592C264.321 55.864 263.969 56 263.569 56C263.137 56 262.777 55.864 262.489 55.592C262.217 55.304 262.081 54.952 262.081 54.536V40.664C262.081 40.248 262.225 39.904 262.513 39.632C262.801 39.344 263.169 39.2 263.617 39.2C264.017 39.2 264.361 39.344 264.649 39.632C264.937 39.904 265.081 40.248 265.081 40.664V46.184H272.737V40.664C272.737 40.248 272.889 39.904 273.193 39.632C273.497 39.344 273.849 39.2 274.249 39.2ZM299.942 46.928C300.358 46.928 300.702 47.072 300.974 47.36C301.246 47.632 301.382 47.976 301.382 48.392V53.48C301.382 54.04 301.134 54.472 300.638 54.776C299.07 55.752 297.35 56.24 295.478 56.24C293.894 56.24 292.43 55.856 291.086 55.088C289.742 54.304 288.678 53.256 287.894 51.944C287.11 50.616 286.718 49.168 286.718 47.6C286.718 46.032 287.11 44.592 287.894 43.28C288.678 41.952 289.742 40.904 291.086 40.136C292.43 39.352 293.894 38.96 295.478 38.96C297.062 38.96 298.438 39.28 299.606 39.92C299.846 40.048 300.022 40.216 300.134 40.424C300.262 40.632 300.326 40.856 300.326 41.096C300.326 41.496 300.19 41.848 299.918 42.152C299.662 42.44 299.342 42.584 298.958 42.584C298.718 42.584 298.454 42.52 298.166 42.392C297.302 42.024 296.406 41.84 295.478 41.84C294.454 41.84 293.51 42.104 292.646 42.632C291.782 43.144 291.094 43.84 290.582 44.72C290.086 45.6 289.838 46.56 289.838 47.6C289.838 48.64 290.086 49.6 290.582 50.48C291.094 51.36 291.782 52.064 292.646 52.592C293.51 53.104 294.454 53.36 295.478 53.36C295.926 53.36 296.406 53.32 296.918 53.24C297.43 53.16 297.878 53.056 298.262 52.928V49.808H296.006C295.59 49.808 295.238 49.672 294.95 49.4C294.678 49.128 294.542 48.784 294.542 48.368C294.542 47.952 294.678 47.608 294.95 47.336C295.238 47.064 295.59 46.928 296.006 46.928H299.942ZM320.475 47.6C320.475 49.184 320.123 50.64 319.419 51.968C318.715 53.28 317.739 54.32 316.491 55.088C315.259 55.856 313.867 56.24 312.315 56.24C310.763 56.24 309.363 55.856 308.115 55.088C306.883 54.32 305.915 53.28 305.211 51.968C304.523 50.64 304.179 49.184 304.179 47.6C304.179 46.016 304.523 44.568 305.211 43.256C305.915 41.928 306.883 40.88 308.115 40.112C309.363 39.344 310.763 38.96 312.315 38.96C313.867 38.96 315.259 39.344 316.491 40.112C317.739 40.88 318.715 41.928 319.419 43.256C320.123 44.568 320.475 46.016 320.475 47.6ZM317.355 47.6C317.355 46.528 317.139 45.56 316.707 44.696C316.275 43.816 315.675 43.12 314.907 42.608C314.139 42.096 313.275 41.84 312.315 41.84C311.339 41.84 310.467 42.096 309.699 42.608C308.947 43.104 308.355 43.792 307.923 44.672C307.507 45.552 307.299 46.528 307.299 47.6C307.299 48.672 307.507 49.648 307.923 50.528C308.355 51.408 308.947 52.104 309.699 52.616C310.467 53.112 311.339 53.36 312.315 53.36C313.275 53.36 314.139 53.104 314.907 52.592C315.675 52.08 316.275 51.392 316.707 50.528C317.139 49.648 317.355 48.672 317.355 47.6ZM339.436 47.6C339.436 49.184 339.084 50.64 338.38 51.968C337.676 53.28 336.7 54.32 335.452 55.088C334.22 55.856 332.828 56.24 331.276 56.24C329.724 56.24 328.324 55.856 327.076 55.088C325.844 54.32 324.876 53.28 324.172 51.968C323.484 50.64 323.14 49.184 323.14 47.6C323.14 46.016 323.484 44.568 324.172 43.256C324.876 41.928 325.844 40.88 327.076 40.112C328.324 39.344 329.724 38.96 331.276 38.96C332.828 38.96 334.22 39.344 335.452 40.112C336.7 40.88 337.676 41.928 338.38 43.256C339.084 44.568 339.436 46.016 339.436 47.6ZM336.316 47.6C336.316 46.528 336.1 45.56 335.668 44.696C335.236 43.816 334.636 43.12 333.868 42.608C333.1 42.096 332.236 41.84 331.276 41.84C330.3 41.84 329.428 42.096 328.66 42.608C327.908 43.104 327.316 43.792 326.884 44.672C326.468 45.552 326.26 46.528 326.26 47.6C326.26 48.672 326.468 49.648 326.884 50.528C327.316 51.408 327.908 52.104 328.66 52.616C329.428 53.112 330.3 53.36 331.276 53.36C332.236 53.36 333.1 53.104 333.868 52.592C334.636 52.08 335.236 51.392 335.668 50.528C336.1 49.648 336.316 48.672 336.316 47.6ZM355.325 46.928C355.741 46.928 356.085 47.072 356.357 47.36C356.629 47.632 356.765 47.976 356.765 48.392V53.48C356.765 54.04 356.517 54.472 356.021 54.776C354.453 55.752 352.733 56.24 350.861 56.24C349.277 56.24 347.813 55.856 346.469 55.088C345.125 54.304 344.061 53.256 343.277 51.944C342.493 50.616 342.101 49.168 342.101 47.6C342.101 46.032 342.493 44.592 343.277 43.28C344.061 41.952 345.125 40.904 346.469 40.136C347.813 39.352 349.277 38.96 350.861 38.96C352.445 38.96 353.821 39.28 354.989 39.92C355.229 40.048 355.405 40.216 355.517 40.424C355.645 40.632 355.709 40.856 355.709 41.096C355.709 41.496 355.573 41.848 355.301 42.152C355.045 42.44 354.725 42.584 354.341 42.584C354.101 42.584 353.837 42.52 353.549 42.392C352.685 42.024 351.789 41.84 350.861 41.84C349.837 41.84 348.893 42.104 348.029 42.632C347.165 43.144 346.477 43.84 345.965 44.72C345.469 45.6 345.221 46.56 345.221 47.6C345.221 48.64 345.469 49.6 345.965 50.48C346.477 51.36 347.165 52.064 348.029 52.592C348.893 53.104 349.837 53.36 350.861 53.36C351.309 53.36 351.789 53.32 352.301 53.24C352.813 53.16 353.261 53.056 353.645 52.928V49.808H351.389C350.973 49.808 350.621 49.672 350.333 49.4C350.061 49.128 349.925 48.784 349.925 48.368C349.925 47.952 350.061 47.608 350.333 47.336C350.621 47.064 350.973 46.928 351.389 46.928H355.325ZM369.666 53.192C370.082 53.192 370.426 53.328 370.698 53.6C370.986 53.856 371.13 54.192 371.13 54.608C371.13 55.008 370.986 55.344 370.698 55.616C370.426 55.872 370.082 56 369.666 56H361.866C361.45 56 361.098 55.864 360.81 55.592C360.538 55.304 360.402 54.952 360.402 54.536V40.664C360.402 40.248 360.546 39.904 360.834 39.632C361.122 39.344 361.49 39.2 361.938 39.2C362.338 39.2 362.682 39.344 362.97 39.632C363.258 39.904 363.402 40.248 363.402 40.664V53.192H369.666ZM384.132 53.24C384.548 53.24 384.892 53.384 385.164 53.672C385.452 53.944 385.596 54.264 385.596 54.632C385.596 55.032 385.452 55.36 385.164 55.616C384.892 55.872 384.548 56 384.132 56H376.092C375.676 56 375.324 55.864 375.036 55.592C374.764 55.304 374.628 54.952 374.628 54.536V40.664C374.628 40.248 374.764 39.904 375.036 39.632C375.324 39.344 375.676 39.2 376.092 39.2H384.132C384.548 39.2 384.892 39.336 385.164 39.608C385.452 39.864 385.596 40.2 385.596 40.616C385.596 41.016 385.46 41.344 385.188 41.6C384.916 41.84 384.564 41.96 384.132 41.96H377.628V46.04H383.052C383.468 46.04 383.812 46.176 384.084 46.448C384.372 46.704 384.516 47.04 384.516 47.456C384.516 47.856 384.38 48.184 384.108 48.44C383.836 48.68 383.484 48.8 383.052 48.8H377.628V53.24H384.132Z" fill="#E24945"/>
<path fill-rule="evenodd" clip-rule="evenodd" d="M54.24 47.4318C54.24 46.0846 54.1191 44.7891 53.8945 43.5455H36V50.895H46.2255C45.785 53.27 44.4464 55.2823 42.4341 56.6296V61.3968H48.5745C52.1673 58.0891 54.24 53.2182 54.24 47.4318Z" fill="#4285F4"/>
<path fill-rule="evenodd" clip-rule="evenodd" d="M36.0001 66C41.1301 66 45.431 64.2986 48.5746 61.3968L42.4342 56.6295C40.7328 57.7695 38.5565 58.4432 36.0001 58.4432C31.0515 58.4432 26.8628 55.1009 25.3687 50.61H19.021V55.5327C22.1474 61.7423 28.5728 66 36.0001 66Z" fill="#34A853"/>
<path fill-rule="evenodd" clip-rule="evenodd" d="M25.3686 50.61C24.9886 49.47 24.7727 48.2523 24.7727 47C24.7727 45.7477 24.9886 44.53 25.3686 43.39V38.4673H19.0209C17.7341 41.0323 17 43.9341 17 47C17 50.0659 17.7341 52.9677 19.0209 55.5327L25.3686 50.61Z" fill="#FBBC05"/>
<path fill-rule="evenodd" clip-rule="evenodd" d="M36.0001 35.5568C38.7896 35.5568 41.2942 36.5155 43.2633 38.3982L48.7128 32.9486C45.4224 29.8827 41.1215 28 36.0001 28C28.5728 28 22.1474 32.2577 19.021 38.4673L25.3687 43.39C26.8628 38.8991 31.0515 35.5568 36.0001 35.5568Z" fill="#EA4335"/>
</svg>
